<svg id="レイヤー_1" data-name="レイヤー 1" xmlns="http://www.w3.org/2000/svg" viewBox="0 0 1000 1000"><defs><style>.cls-1{fill:#ccefbf;}.cls-2,.cls-3{fill:none;stroke-miterlimit:10;}.cls-2{stroke:#000;stroke-width:14px;}.cls-3{stroke:#006d52;stroke-width:10px;}.cls-4{fill:#006d52;}</style></defs><rect class="cls-1" y="-1" width="1000" height="1000"/><path d="M236.28,931.23a68.53,68.53,0,0,1,.93-9.29c-14.46,16.81-33.58,34.95-56.9,34.95-20.05,0-30.31-14.6-30.31-33.18,0-48.67,59.7-107.07,115.19-107.07,15.39,0,24.72,4,25.65,4.42,2.34.89,4.2,2.22,4.2,4.43a7.79,7.79,0,0,1-.93,3.09c-1.4,2.66-15.39,34.51-36.38,65.93-5.6,14.16-9.79,27.43-9.79,36.72,0,8,4.19,14.6,12.12,14.6,15.86,0,63.9-51.77,75.09-63.71,2.33-2.21,3.26-2.21,4.66-2.21a5.9,5.9,0,0,1,5.6,5.75,6.38,6.38,0,0,1-1.87,4c-42,43.8-65.76,67.25-83.48,67.25C243.74,956.89,236.28,944.06,236.28,931.23Zm-74.62-7.08c0,11.5,6.06,21.68,18.19,21.68,26.11,0,54.1-35,67.15-55.75,10.26-24.33,25.19-49.11,32.65-60.61a64.4,64.4,0,0,0-14.92-1.77C213.89,827.7,161.66,884.33,161.66,924.15Z"/><path d="M338.88,938.75c0-19.47,15.38-51.76,25.65-72.12-13.06,14.6-15.86,18.14-21,23-1.4,1.33-2.33,1.77-3.73,1.77a5.9,5.9,0,0,1-5.6-5.75,4.88,4.88,0,0,1,1.4-3.54c2.33-2.66,9.79-12,23.32-26.55L389.24,822a5.85,5.85,0,0,1,4.67-2.21c3.73,0,5.59,1.77,5.59,4.86a9.37,9.37,0,0,1-.46,3.54c-2.8,4.43-16.79,28.32-29.38,54.42-9.33,19.91-17.73,40.71-19.13,54.42,0,5.31.47,9.29,5.13,9.29,3.74,0,8.87-1.77,14.46-6.63,31.25-27,58.76-57.08,59.23-57.52.93-1.33,2.8-1.77,4.66-1.77a5.49,5.49,0,0,1,5.6,5.31,6.42,6.42,0,0,1-1.86,4c-.47.44-18.19,21.24-60.17,58-7.46,6.64-15.39,9.73-22.38,9.73C343.07,957.33,338.88,947.6,338.88,938.75ZM412.42,794c-6.53,0-8.86-4.87-8.86-10.18,0-7.08,5.6-12.83,12.13-12.83s9.32,4.87,9.32,9.73C425,791.34,417.09,794,412.42,794Z"/><path d="M525,953.35c-2.8-2.21-6.06-6.64-6.06-14.6,0-12.83,10.72-38.93,18.19-55.75-10.26,14.16-21.92,28.76-34.05,41.15-17.25,17.7-35.44,31-51.3,31.41-9.79,0-14-4-16.32-7.08-2.33-3.54-3.27-7.52-3.27-12.83,0-14.16,7.93-34.51,20.06-61l-14,15a6.16,6.16,0,0,1-4.67,1.77A5.23,5.23,0,0,1,428,886.1a6.42,6.42,0,0,1,1.86-4c27.52-29.2,36.38-42,43.37-54.86,1.87-3.1,2.34-6.64,7.93-6.64,3.27,0,5.13,3.1,5.13,6.19a12.33,12.33,0,0,1-1.4,4l-21.45,47.34c-10.26,23.45-19.59,45.57-19.59,58,0,5.75,2.33,8.4,7.46,8.4,12.6,0,28-11.94,44.31-28.76,27.05-27.87,54.57-69.9,67.62-92.46.94-1.77,2.8-3.54,5.13-3.54,4.67,0,6.07,3.09,6.07,4.86,0,1.33-.47,2.66-1.87,5.31-4.66,12.39-10.26,26.1-16.32,39.38-9.8,21.68-25.65,57.51-25.65,69.9,0,4,1.4,6.64,5.13,6.64,14.46,0,54.1-43.36,74.15-63.71a5.84,5.84,0,0,1,4.2-1.77c3.26,0,6.06,2.65,6.06,5.31a6.42,6.42,0,0,1-1.86,4c-18.66,17.7-57.84,67.25-83,67.25A16.4,16.4,0,0,1,525,953.35Z"/><path d="M600.5,920.17c0-37.17,36.84-101.32,77.88-101.32,14.46,0,23.79,7.52,23.79,19.91,0,20.35-28.45,45.13-85.82,56.63-2.79,9.29-4.19,17.26-4.19,25.66,0,15.05,7,25.22,22.85,25.22,21.92,0,58.76-19,100.27-64.15.93-1.33,2.8-1.77,4.66-1.77,3.73,0,5.13,3.54,5.13,5.75a4.84,4.84,0,0,1-1.4,3.54c-39.17,42.92-78.81,67.69-107.73,67.69C610.29,957.33,600.5,939.64,600.5,920.17Zm21-37.17c48.51-11.5,69-32.29,69-44.68,0-6.64-7.93-8.41-12.13-8.41C654.13,829.91,630.81,863.54,621.48,883Z"/><path d="M815.49,925.48c-15.39,16.37-34.51,31-56,31-22.38,0-32.17-19-32.17-37.17,0-29.2,20.52-73,60.16-97.77a6.74,6.74,0,0,1,2.79-.89c3.27,0,6.07,2.66,6.07,5.31a6.06,6.06,0,0,1-2.8,4.87C759.06,852.48,739,892.74,739,919.28c0,13.72,6.53,26.11,20.52,26.11,18.66,0,34.52-14.16,45.71-25.22-11.19-8-16.79-21.24-16.79-38.94,0-21.68,14.46-64.15,41-64.15,16.79,0,20.52,19.91,20.52,31.41,0,25.22-12.59,48.67-26.58,67.7m-23.32-35c0,8.41,1.4,23,12.12,30.09,14.93-19,26.12-40.26,26.12-62.38,0-6.2-.93-20.8-8.86-20.8C812.22,828.14,800.1,863.54,800.1,881.23Z"/><path class="cls-2" d="M907.65,783A75,75,0,0,0,850,660"/><path class="cls-3" d="M145,851.13V203.67c0-46.21,40.69-83.67,90.87-83.67H754.13c50.18,0,90.87,37.46,90.87,83.67V851.13"/><path class="cls-3" d="M207.5,783.85V252c0-37.95,33.42-68.72,74.65-68.72h425.7c41.23,0,74.65,30.77,74.65,68.72V783.85"/><rect class="cls-4" x="267" y="280" width="465" height="14"/><rect class="cls-4" x="267" y="373.25" width="465" height="14"/><rect class="cls-4" x="267" y="466.5" width="465" height="14"/><rect class="cls-4" x="267" y="559.75" width="465" height="14"/><rect class="cls-4" x="268" y="653" width="465" height="14"/><rect x="840" y="653" width="10" height="200"/></svg>